<?xml version="1.0" encoding="UTF-8" standalone="no"?>
<!DOCTYPE svg PUBLIC "-//W3C//DTD SVG 1.1//EN" "http://www.w3.org/Graphics/SVG/1.1/DTD/svg11.dtd">
<svg width="100%" height="100%" viewBox="0 0 1000 1000" version="1.1" xmlns="http://www.w3.org/2000/svg" xmlns:xlink="http://www.w3.org/1999/xlink" xml:space="preserve" xmlns:serif="http://www.serif.com/" style="fill-rule:evenodd;clip-rule:evenodd;stroke-linejoin:round;stroke-miterlimit:2;">
    <g transform="matrix(1.580654,0,0,1.580654,-138.988694,-233.481247)">
        <g transform="matrix(281.747537,0,0,281.747537,321.617401,500)">
        </g>
        <text x="158.182px" y="500px" style="font-family:'SegoeUISymbol', 'Segoe UI Symbol', sans-serif;font-size:281.748px;fill:white;">K</text>
    </g>
    <g transform="matrix(1.177395,0,0,1.177395,170.349285,-337.183548)">
        <g transform="matrix(281.747537,0,0,281.747537,354.280744,857.81816)">
        </g>
        <text x="156.727px" y="857.818px" style="font-family:'SegoeUISymbol', 'Segoe UI Symbol', sans-serif;font-size:281.748px;fill:white;">D</text>
    </g>
    <g transform="matrix(2.011254,0,0,2.011254,-514.123376,-406.182652)">
        <g transform="matrix(78.223658,0,0,78.223658,679.296768,556.032279)">
        </g>
        <text x="521.818px" y="556.032px" style="font-family:'SegoeUISymbol', 'Segoe UI Symbol', sans-serif;font-size:78.224px;fill:white;">omu</text>
    </g>
    <g transform="matrix(2.011254,0,0,2.011254,-608.704905,-522.144325)">
        <g transform="matrix(78.223658,0,0,78.223658,561.617524,556.032279)">
        </g>
        <text x="521.818px" y="556.032px" style="font-family:'SegoeUISymbol', 'Segoe UI Symbol', sans-serif;font-size:78.224px;fill:white;">a</text>
    </g>
    <g transform="matrix(2.011254,0,0,2.011254,-473.266386,-522.319913)">
        <g transform="matrix(78.223658,0,0,78.223658,674.369594,556.032279)">
        </g>
        <text x="521.818px" y="556.032px" style="font-family:'SegoeUISymbol', 'Segoe UI Symbol', sans-serif;font-size:78.224px;fill:white;">men</text>
    </g>
</svg>
