<?xml version="1.0" encoding="UTF-8"?>
<svg id="Vrstva_1" xmlns="http://www.w3.org/2000/svg" version="1.1" viewBox="0 0 319.5 302.25">
  <!-- Generator: Adobe Illustrator 29.6.1, SVG Export Plug-In . SVG Version: 2.1.1 Build 9)  -->
  <defs>
    <style>
      .st0 {
        fill: #355f3d;
      }
    </style>
  </defs>
  <path class="st0" d="M221.74,188.39c8.14,4.97,16.86,5.05,18.99,16.03,3.63,18.74-9.91,40.84-24.06,52.12-14.73,11.74-31.34,16.12-50.17,14.24-2.64-.26-4.54-2.36-6.74-2.27-1.29.06-4.92,2.75-6.68,3.46-15.53,6.29-34.27-2.98-32.42-21.18.36-3.57,1.48-5.08,1.45-9.04-.05-9.84,4.54-26.81,6.92-36.89,6.63-28.01,21.55-76.23,44.21-94.74,18.5-15.12,50.1-18.08,68.73-1.7,28,24.63,15.22,51.56-9.36,71.92-3.47,2.88-7.53,5.1-10.87,8.04ZM187.28,170.41c8.53-3.24,18.96-5.59,26.02-11.62,3.08-2.63,8.98-9.66,6.36-13.83-.79-1.26-6.53-5.66-7.85-5.61-.57.02-1.69.94-2.73,1.03-2.03.17-2.65-.47-5.15.44-9.55,3.45-15.44,20.38-16.65,29.6ZM168.18,249.06c4.18-.68,8.14.06,12.28-1.02,7.78-2.03,17.76-8.69,19.82-16.88.73-2.91,1.03-8.27-1.18-10.58-4.44-4.63-18.03.48-23.83.56-2.76,9.21-5.8,18.34-7.09,27.92Z"/>
  <path class="st0" d="M160.54,108.85c-12.11,21.34-22.85,43.77-35,65.19-5.5,9.69-16.3,30.23-25.89,35.16-8.62,4.42-29.22,3.31-33.46-7.02-2.78-6.79-1.27-27.27-1.37-35.7-.27-23.2-.56-46.41-.75-69.66-.1-11.98-1.46-26.41-.41-38.2.87-9.63,18.86-16.6,26.21-11.2,4.28,3.15,7.13,18.31,7.84,23.62,2.08,15.49,2.36,31.51,3.06,47.12.14,1.72,4.29,4.48,5.34,2.74,5.27-12.99,11.28-25.66,17.67-38.12,4.86-9.47,10.31-20.49,15.86-29.46,7.33-11.85,19.89-13.19,32.56-9.21,7.41,2.32,12.16,4.3,14.34,12.25,2.87,10.44-4.76,16.99-9.91,24.96-5.72,8.83-10.9,18.39-16.09,27.55Z"/>
</svg>