<?xml version="1.0" encoding="UTF-8"?>
<svg id="Vrstva_1" xmlns="http://www.w3.org/2000/svg" version="1.1" viewBox="0 0 690 690.5">
  <!-- Generator: Adobe Illustrator 29.6.1, SVG Export Plug-In . SVG Version: 2.1.1 Build 9)  -->
  <defs>
    <style>
      .st0 {
        fill: #22603d;
      }

      .st1 {
        fill: #22603c;
      }

      .st2 {
        fill: #fefefe;
      }
    </style>
  </defs>
  <path class="st2" d="M223.5,147.5h-126.5v7.5h18l98.73,267.03h30.55s1.68-.83,1.68-.83l92.54-266.21h18.5v-7.5h-59v7.5h29.5l-66.75,192.51-64.75-192.51h26.75c1.56-1.88.42-5.13.75-7.5ZM311.5,247v7h25v256h-25v7.5l124.27.02c54.29-2.81,116.12-11.76,112.25-80.8-2.37-42.2-40.06-58.24-77.02-62.23-.15-1.29,0-.8.73-1.01,3.22-.95,7.01-1.25,10.38-2.13,34.16-8.88,54.5-28.94,52.41-66.13-2.73-48.67-50.69-55-89.75-58.25l-133.27.02Z"/>
  <path class="st1" d="M311.5,247l133.27-.02c39.06,3.25,87.02,9.57,89.75,58.25,2.09,37.19-18.26,57.25-52.41,66.13-3.36.87-7.16,1.18-10.38,2.13-.73.22-.88-.28-.73,1.01,36.97,3.98,74.66,20.03,77.02,62.23,3.87,69.03-57.96,77.99-112.25,80.8l-124.27-.02v-7.5h25V254h-25v-7ZM412,254v118.75c2.28,1.26,6.46.85,9.24.74,28.86-1.07,35.54-17.25,36.78-43.72.77-16.48,1.38-50.07-6.94-64.11-7.79-13.15-25.9-11.5-39.08-11.67ZM412,510h23.75c14.46,0,24.68-12.23,28.61-24.89,5.61-18.07,6.45-61.75.28-79.49-8.44-24.26-30.08-25.46-52.64-25.11v129.5Z"/>
  <path class="st0" d="M223.5,147.5c-.33,2.37.81,5.62-.75,7.5h-26.75l64.75,192.51,66.75-192.51h-29.5v-7.5h59v7.5h-18.5l-92.54,266.21-1.68.82h-30.55S115,155,115,155h-18v-7.5h126.5Z"/>
</svg>