<?xml version="1.0" encoding="UTF-8"?>
<svg id="Vrstva_1" xmlns="http://www.w3.org/2000/svg" version="1.1" viewBox="0 0 1024 1024">
  <!-- Generator: Adobe Illustrator 29.6.1, SVG Export Plug-In . SVG Version: 2.1.1 Build 9)  -->
  <defs>
    <style>
      .st0 {
        fill: #ded2bc;
      }

      .st1 {
        fill: #273130;
      }

      .st2 {
        fill: #d3c4a4;
      }

      .st3 {
        fill: #969689;
      }

      .st4 {
        fill: #353d3f;
      }

      .st5 {
        fill: #c6c3b2;
      }

      .st6 {
        fill: #fdfbf4;
      }

      .st7 {
        fill: #575e5b;
      }

      .st8 {
        fill: #fbf4e0;
      }

      .st9 {
        fill: #d9d2c1;
      }

      .st10 {
        fill: #343f41;
      }

      .st11 {
        fill: #2a3434;
      }

      .st12 {
        fill: #d4c7a8;
      }

      .st13 {
        fill: #ddd2bc;
      }

      .st14 {
        fill: #d1c7ad;
      }

      .st15 {
        fill: #fefcf2;
      }

      .st16 {
        fill: #fdfcf3;
      }

      .st17 {
        fill: #2d3534;
      }

      .st18 {
        fill: #959588;
      }

      .st19 {
        fill: #fae9c1;
      }

      .st20 {
        fill: #354145;
      }

      .st21 {
        fill: #969688;
      }

      .st22 {
        fill: #d2c3a3;
      }

      .st23 {
        fill: #d5c7a8;
      }

      .st24 {
        fill: #f6e2b7;
      }

      .st25 {
        fill: #919287;
      }

      .st26 {
        fill: #b7b2a0;
      }

      .st27 {
        fill: #b9b6a6;
      }

      .st28 {
        fill: #d2c7ad;
      }

      .st29 {
        fill: #81917d;
      }

      .st30 {
        fill: #d5cbaf;
      }

      .st31 {
        fill: #7e847a;
      }

      .st32 {
        fill: #334146;
      }

      .st33 {
        fill: #b7ba88;
      }

      .st34 {
        fill: #b8ba89;
      }

      .st35 {
        fill: #c7cdb8;
      }

      .st36 {
        fill: #2d3634;
      }

      .st37 {
        fill: #d4c6a8;
      }

      .st38 {
        fill: #b8ba88;
      }

      .st39 {
        fill: #303a3a;
      }

      .st40 {
        fill: #b7b19f;
      }

      .st41 {
        fill: #7e837a;
      }

      .st42 {
        fill: #303c3e;
      }
    </style>
  </defs>
  <path class="st7" d="M282,397c3.07.75,6.75,3.8,4,6.5.77.09,1.94.32,2,.87.25,2.2.32,16.98-.67,17.99-.33.33-.81.51-1.33.65l.68-2.01c43.46-.33,86.93-.65,130.42-.98l1.9,1.99c.66.34,1.3.71,1.85,1.18,4.01,3.46,6.29,25.96,6.81,32.49.85,10.64,1.99,35.52-.44,45.04-.34,1.33-1.23,2.39-2.23,3.29-2.09,3.75-11.24,4.16-14,1h-141l2.49,2.44c6.34,10.65,9.98,16,23.22,16.23l1.29,2.33c2.55-.7,5.17-.36,7.73.11,4.64.86,12.43,2.67,15.27,5.89,2.48,2.08,3.27,5.59,2.35,10.54l-.98,21.81c-1.23,10.34,4.71,15.5,17.82,15.5,42.28,4.72,84.49,10.14,126.64,16.27,10.73.99,17.95.75,21.16-11.07l6.54-19.63c.74-2.68,2.23-3.82,4.48-3.42.77-2.74,6.22-2.75,7,0,3.22-.39,4.42,1.94,3.58,7-2.44,9.28-5.04,18.22-7.79,26.82l27.96-1.68c2.05-20.46,13.86-22.62,32-23.09,25.17,1.14,50.3,1,75.4-.44,17.67-1.89,23.21,10.29,27.89,24.19,3.13.74,5.38-2.23,6.74-8.91,10.23-16.22,21.85-31.45,34.87-45.69l-.66-2.2c-11.93-1.05-28.03-2.65-38.29-9.1-1.15-.72-2.4-6.71.29-6.9-1.12-1.62-.64-2.19.66-3.27,3.93-3.25,20.01-.53,22.34,4.27,12.33.29,23.66,2.95,34,8,1.95-.78,3.12,2.6,2.81,3.93-1.53,6.64-5.06,11.13-9.43,16.62-2.62,2.04-34.14,40.43-30.19,40.77,72.92-1.47,145.67-7.4,218.21-14.63l8.59.32c.08,31.98.04,64.02,0,96l-1.91,1.09c-29.02-21.4-62.04-43.79-98.49-50.09l-1.61-2-2.04,2.12c-14.87,5.13-29.43,10.74-43.67,16.84l-1.28-.96c-1.44,2.57-4.12,4.45-8.05,5.64-7.72,5.89-15.06,12.4-22.04,19.54-27.33,13.04-39.64,40.04-30.91,69.37l29.57,67.85c4.09,5.21,48.35,7.02,52.77,7.18,41.74,1.5,82.36.59,123.68-6.19l3.97.61c-.18,5.7-.29,10.29-1,16-1.52,1-3.14,2-4.98,2.28-24.89,3.75-51.04,5.72-76.12,5.69-22.23-.03-47.54-.57-69.62-2.38-13.64-1.12-27.34-2.72-40.2-7.65l-60.88.07-1.21-2-1.56-3.54c-2.04-40.2-1.95-80.46.25-120.78l1.3-3.68.96-2.51,26.05-9.94-25.86-.54-1.15-2.02-2.04-1.69c.54-28.38-3.64-55.56-12.55-81.54-2.03-2.08-2.84-4-2.41-5.77-27.56-.86-63.45-.88-93,0l.74,1.2c-5.46,5.35-6.12,8.65-2.3,15.95,10.41,19.41,17.95,45.17,17.26,67.46-.05,1.6-.89,3.05-1.71,4.39l-.69,2-95.57-.06c-16.57,4.17-33.68,5.45-50.72,5.54-30.61-.7-61.09-1.36-91.46-1.99-29.68-6.78-55.2-3.29-83.56,5.68-32.77,5.57-65.36,11.21-97.65,19.04-3.6,1.75-7.05,2.68-10.34,2.78l.41,1.34c-5.07,3.98-5.95,8.54-6.99,14.97-.97,6.03-3.59,30.19.73,33.96,16.98,9.11,35.63,17.22,53.83,24.89.56.24,3.84-.33,4.5-1.05l20.05-45.58c5.51-8.5,15.78-7.15,16.25,3.5-6.64,15.03-12.62,29.62-17.92,43.78,25.93-5.78,52.04-8.67,78.09,3,26.15-2.31,52.24-4.72,78.3-7.91,3.28-.4,8.14-1.06,11.27-2.11,2.67-.9,3.88-2.75,4.78-5.28,3.63-14.37,7.74-28.59,12.33-42.67,3.64-6.65,17.62-5.85,16.4,3.75-3.81,14.22-7.82,28.34-12.06,42.33,9.24-2.15,18.67-3.57,28.06-4.96,43.98-6.53,87.72-13.41,131.56-20.8,3.44-.58,6.95-.41,10.41-.16.64,17.87.81,36.04.5,54.52l.5-1.52c4.44.48,4.51,14.25,1,16-78.74.77-157.82,1.1-237.26,1l-.74,1c5.89,2.61,8.45,13.11,9.19,19.46,3.19,27.31-32.92,34.16-53.21,35.89-33.41,2.86-70.55,4.81-104,2.41-26.29-1.89-37.28-18.38-26.46-42.59,2.42-5.42,6.77-14.4,11.48-17.18l-53.33-.5c-.32-50.27-.62-102.43.33-152.5.96-1.16,2.07-1.94,3.46-1.4,16.95,4.97,34.06,8.78,51.32,11.44,35.72-2.74,73.44-5.87,107.58-15.39l3.75-2.21c12.34-11.78,24.47-23.68,36.4-35.72,2.24-4.63-7.07-18.94-10.56-22.66-18.34-16.42-24.96-37.37-31.54-60.27l-4.15-9.22.74-2.58c-4.16-1.97-7.08-4.87-9.91-8.45l-27.77-41.11c-14.53-21.93-36.03-30.12-60.14-36.68-10.51-7.86-21.6-13.4-33.29-16.63l-1.89-2.14-2.59,1.95c-6.94.05-13.73,1.61-20.41,3.35l-3-1.3v-13l1.99-2.42c23.42-7.46,43.03-1.65,62.36,12.33,12.51,6.24,33.91,16.26,47.33,17.47,10.05.91,27,1.19,36.85-.21,8.4-1.2,11.34-3.01,12.51-11.78,1.03-7.72.52-21.8-8.84-23.96l-.2-2.43c-5.6-.16-20.9-6.65-22.55-11.43s1.26-9.06,5.9-10.35,30.45,12.07,35.82,15.31l.82,2.48h.06Z"/>
  <path class="st7" d="M556,228l1.93-1.79c22.27,5.36,44.16,11.93,65.82,19.04,9.52,3.05,13.85,11.85,16.42,20.91l5.38,19.18c19.89,10.36,39.16,22.07,57.43,35.04-21.63-55.31-56.12-123.73-123.77-130.21-10.27-11.38-3.81-17.01,9.75-15.79,65.41,5.91,120.98,59.12,148.87,115.17-11.68-48.55-35.52-93.47-65.79-132.96-1.24-4.63-1.07-10.57,4.4-12,12.34-3.21,42.46,27.02,48.8,34.41,21.1,24.59,34.79,54.07,47.93,83.37,13.74-39.04,37.78-91.78,72.44-116.01,13.99-9.78,22.07-4.58,13.65,10.9-26.23,38.57-43.22,85.44-51.32,131.99,15.34-31.24,39.8-71.12,67.75-92.93,15.24-11.89,22.05,2.08,12.39,14.5-18.31,27.42-34.65,55.42-45.82,87.77l-2.24,2.41-.12,4.52c-5.05,17.72-9.81,35.53-14.28,53.43,8.76-18.25,20.18-36.69,33.81-52.84.48-.57,1.24-.93,2.04-1.29s1.67-.61,2.55-.82c.02-.76.08-1.51.26-2.23,1.93-7.51,39.65-34.65,47.56-33.42.74.11,1.46.36,2.18.65.03,6.33-1.02,13.6-1,19l-1.09,3.16c-7.09,6.81-13.13,14.55-18.64,22.67l-3.27,1.17-1.89,6.27c-13.89,20.97-25.28,43.77-32.73,67.79,12.75-20.32,27.93-40.6,46.4-56.24.65-.55,1.5-.87,2.39-1.18s1.86-.49,2.83-.63c-.15-3.66,3.52-6.3,7-5,.03,12.32,0,24.68,0,37l-1.46,5.15c-23.76,35.75-40.44,77.78-45.6,119.65l46.37,10.98.69,2.22c-.02,2.28.42,13.45,0,14.01-.12.16-1.44-.1-2,0l-1.35.68c-15.73-3.37-31.4-7.15-47.03-11.32l-2.63-2.35c-37.98-.91-75.98-.91-114,0-3.81.54-7.63,1.03-11.46,1.38s-7.64.69-11.46.73c-57.37.73-114.75,1.02-172.13,1.04-7.69-.1-15.34-1.12-22.95-2.16-1.92-.3-1.8-1.09,0-2,.95-10.5.95-20.83,0-31-1.96,1.58-2.78.44-3.07-1.81l.24-25.26c-1.29-30.16-8.92-45.78-38.42-54.69-5.32-1.49-11.87-10.07-4.75-12.24-.94-4.65,10.03-3.39,13.17-2.59,9.13,2.34,27.6,14.24,32.61,22.22l-.78,2.37,2.49.35c4.19,9.19,8.44,18.33,12.74,27.44,1.54,1.83,17.55,11.44,19.98,12.05,5.03,1.27,24.52-.29,27.8-4.22,2.12-2.54,3.03-31.83-1.45-35.75l-8.99-7.63.44-2.24c-8.31-3.08-16.85-9.73-22-17-37.88-.44-76.09-.43-114.62.02-1.77-2.92-2.56-5.59-2.38-8.02-1.2-.79-2.11-1.83-2.69-3.14l-4.7-28.28c-3.5-14.43-9.43-30.7-26.58-31.46l-1.03-2.12h-86c-1.3,1.71-3.2,2.43-5.69,2.15l4.16,6.78c12.54,15.91,23.12,31.45,25.54,52.81.64,5.64,1.79,18.54-5.01,12.26l-11.35,2H111.24l-1.24-2c.03-14.65-.06-29.35,0-44-.29-26.31,21.35-37.82,45.34-33.39-5.79-35.51-5.36-68.74,39.01-69.65,59.64-1.23,119.16-.92,178.81.73,33.59-.64,66.83-.32,99.72.97l2.11,1.35c27-.51,54-.51,81,0v-.03Z"/>
  <path class="st35" d="M914,269c-19.52,6.55-36.16,20.1-50,35l-3.19,1.42c-6.35-2.39-12.67-3.35-18.97-2.89l-1.84-1.53c6.5-19.04,13.79-37.34,23.48-55.02,4.18-7.64,27.32-41.05,27.48-45.58.13-3.6-3.02-6.99-6.64-7.15-4.99-.22-27.46,24.62-31.84,29.73-13.45,15.7-24.92,32.96-35,51l-13.47,28.02c5.65-46.02,21.93-92.49,44.82-132.67,3.33-5.85,14.19-17.98,11.51-24.1-3.23-7.38-18.14,6.35-21.35,9.26-27.78,25.19-47.08,63.82-60.74,98.26-.89,2.25-3.78,12.75-4.26,13.25-1.63,1.71-1.69-.52-2.09-1.4-16.74-37.37-33.19-73.5-64.89-101.11-6.46-5.63-37.27-30.24-33.23-7.76,33.31,43,58.64,93.61,69.2,147.27l-16.57-29.91c-27.46-46.43-76.25-87.82-131.07-95.93-10.04-1.48-26.73-3.15-15.32,11.32,49.75,4.7,78.03,39.61,101.15,79.85,3.95,6.87,27.12,51.28,23.82,55.67-19.46-13.59-39.78-26.08-60.74-37.25-4.94-10.9-5.76-31.05-16.9-37.61-6.91-4.07-30.33-10.05-39.36-12.64-9.02-2.59-23.21-7.68-32-8.5-26.66-.51-53.32-.51-80,0l-3.34-1.35c-19.19-26.61-53.38-33.21-83.49-23.09-12.63-19.8-24.09-37.22-48.63-43.16-23.75-5.75-44.97,3.95-63.01,19.09-43.65-38.43-115.95-29.17-136.65,28.89-8.92-1.89-17.73-2.52-26.42-1.9l-2.46-1.48c5.26-49.02,45.91-87.46,94.63-92.87l606.86-.12c29.58,2.38,55.77,15.65,75.02,37.98,31.43,36.46,25.25,74.21,25.49,119.01h.01Z"/>
  <path class="st37" d="M165,817c-6.95,15.18-21.35,30.05-9.44,46.94,6.1,8.65,17.93,10.44,27.9,11.1,26.64,1.78,64.79-.48,92.03-2.05,32.69-1.88,77.67-10.64,52.51-53.99.1-.56.21-1,.31-1,78.32-.49,159.63-.58,237.69,0,3.15.45,2.33,7.43,1.55,9.99-2.01,6.6-8.47,8.78-14.72,9.19-6.4-.84-35.92-1.68-32.59,10.31,2.35,8.49,21.19,8.37,27.38,8.29,28.28-1.7,56.41-1.64,84.38.19,13.82,4.86,27.48,6.37,40.98,4.52,11.7-7.58,22.77-9.52,37.43-8.75,21.46.56,42.83.87,64.28.53,3.65-.06,16.58-.98,16.24-6.61-.2-3.18-14.63-3.9-17.29-3.91-15.43-.05-30.82.15-46.24.95-13.31,2.57-18.41-3.53-25.23-12.98-5.42-4.84-23.75-.24-30.34,1.85-8.44,2.94-16.74-8.12-11.82-14.56h62.5c25.33,9.38,54.12,7.87,81.04,8.96,21.77.88,38.85,1.86,60.95.04,16.18-1.33,32.32-4.34,48.51-4.99-6.3,50.58-45.41,87.64-95.62,93.88l-607.93.17c-51.52-4.25-95.8-45.56-98.45-98.05.37-2.27,1.09-2.74,1.51-.49l52.49.49v-.02Z"/>
  <path class="st21" d="M136,421l2.02,1.86c-.17,6.17,2.16,20.41,7.33,24.01,39.95,27.81,81.55,56.44,123.65,79.13,7.73,11.48,10.82,35.26,19.48,50.02,7.22,12.29,19.39,20.18,25.38,33.62,2,4.5,5.11,10.46.66,14.38-12.19,9.28-22.87,24.35-34.51,33.49-8.48,6.65-22.25,7.54-32.82,9.18-23.27,3.61-55.59,8.57-78.65,9.35-14.33.48-40.45-9.39-56.55-12.04-.24.87-.58.84-1,0-.28.87-.62.86-1,0,0-79.65-.12-159.35,0-239,8.84-2.26,16.76-4.4,26-4h0Z"/>
  <path class="st29" d="M476,228h-1c-14.8-.14-29.78.82-44.45-1.05-77.89,2.98-158.52-3.8-236.1,0-27.71,1.36-37.94,10.48-39.44,38.56-.58,10.78-.43,21.54,3.99,31.48-15.19-1.59-29.2-3.14-40.02,9.48-5.62,6.55-6.77,13.44-8.98,21.52.15-40.47-2.27-83.21,2-123,9.31-2.53,18.95-.31,27.98,2,18.8-58,95.1-68.88,137.53-29.17,31.13-29.89,75.95-28.42,101.88,7.28,3.91,5.39,6.44,11.39,10.26,16.79,31.18-11.82,68.07-2.15,86.34,26.1h.01Z"/>
  <path class="st41" d="M765,641l2.15.48,10.95,52.02c6.91,10.1,15.09,19.18,24.55,27.24l.35,3.26,1.31-.54c9.81,11.99,19.8,23.99,29.99,36.01l4.36,1.49,72.39-14.02-.17-9.81c-.23-3.3.81-4.68,3.11-4.14-.09,23.9.76,48.15,0,72-13.66,2.63-27.65,4.6-41.5,6-37.78,3.81-82.11,2.93-119.98-1.01-5.19-.54-17.06-1.77-20.54-5.46l-26.44-60.56c-11.16-19.94-6.87-50.5,9.43-66.51,5.42-5.33,13.63-8.69,19.52-13.48,12.85-10.45,12.81-16.85,30.52-22.98h0Z"/>
  <path class="st21" d="M914,517c.04,20.32-.05,40.68,0,61-75.94,9.18-152.45,14.99-229,15.99.16-4.62,2.7-8.63,5.17-12.32,10.41-15.6,26.05-28.69,34.91-45.17l-1.08-5.5c39.12-5.08,78.45-7.75,118-8,1.36-.62,2.73-1.2,4.15-1.64s2.78-.84,4.2-.97c18.26-1.65,36.71-3.08,54.99-4.38,2.92-.21,5.82.37,8.66.98h0Z"/>
  <path class="st18" d="M812,623c19.39-.68,60.87,22.59,77.92,33.58l24.08,17.42c-.02,19.65.07,39.35,0,59-2.7,2.98.66,13.81-1.94,15.56l-73.49,14.37c-1.76-.34-3.69-.89-5.27-1.74-5.13-2.77-23.61-30.02-30.3-37.19.94-18.55.92-38.32.63-57.38.35-13.07.77-26.94,4.49-39.52.72-2.42,1.25-3.33,3.88-4.1Z"/>
  <path class="st30" d="M340,372l-.56,2.5c-25.45,7.53-.2,12.08,14.59,9.98,24.9-1.32,49.76-1.46,74.56-.43,5.79-.21,15.38,4.34,10.07,10.68-4.01,4.79-30.51,7.04-36.67,3.27-1.37,1.35-3.41,1.38-6.13.11-30.07-2.11-60.65-1.82-91.74.87-7.92,1.06-15.3.4-22.13-1.98-6.98-2.44-30.34-16.91-36.26-15.84-4.3.77-6.05,6.15-3.48,9.59,6.34,3.74,13.42,6.54,19.74,10.25.6,3.03-4.03,3.44-6.51,3.65-47.34,1.16-94.76.73-142.27-1.27l-3.22-1.38c.02-9.98-.02-20.02,0-30h230.01Z"/>
  <path class="st22" d="M747,502c38-.91,76-.91,114,0,15.94,1.67,34.19,10.07,50.49,12.02.49.19.56.51.51.98-.02.16-.86.49-1.01.93l3.01,1.07c-23.91,3.06-47.97,4.21-72,6-44.65,2.23-90.4,2.17-135.41,2l-16.59-2c-6.74-1.53-18.42-7.1-23-1l-.69,2h-97.08l-1.22-2c-2.22.63-5.53-2.76-5.5-5-.21.78-.54,1.94-1.14,2-2.38.23-21.4.45-22.43,0-.75-.33-1.13-1.21-1.43-2-7.14,5.71-14.31-9.09-8.5-14,72.71.73,145.39-.74,218-1h0Z"/>
  <path class="st29" d="M914,501l-47.29-11.2c-1.25-.32-1.66-1.03-1.74-2.29-.23-3.44,2.46-15.47,3.33-19.72,7.44-36.38,23.97-74.85,45.71-104.79,0,45.97.43,92.03,0,138h-.01Z"/>
  <path class="st21" d="M110,412v-10c11.82.23,23.71-.29,35.54-.04,34.84.72,71.07,3.01,106,1.08,3.04-.17,7.66-.87,10.46-2.04,2.57,1.51,9,5,9.79,7.71.65,2.22,1.45,16.04,1.24,18.84-.58,7.8-4.59,12.55-12.54,13.46s-37.96,1.17-44.78-.23c-5.09-1.04-31.34-11.84-37.4-14.6-11.99-5.47-20.42-14.08-34.12-16.88-12.31-2.51-22.2.45-34.2,2.7h0Z"/>
  <path class="st35" d="M914,326c-2.4,1.53-4.81,3.19-7,5l-2.7.18c-4.12-5.06-8.72-9.59-13.79-13.59l-.52-2.59c6.82-9.66,13.46-19.62,23-27,.04,12.35.97,25.38,1,38h.01Z"/>
  <path class="st42" d="M112,664v152.01l53,.99h-54c-.32-6.28.09-12.71,0-19-1.01-44.66-1.01-89.33,0-134,.33.04.68-.05,1,0Z"/>
  <path class="st7" d="M111,798c-1.66-1.04-1-3.79-1.02-5.49-.53-42.81.02-85.71.02-128.51h1c.48,44.64-.64,89.37,0,134Z"/>
  <path class="st21" d="M565,697c3.52,16.27,3.2,34.67,0,51-.28.87-.62.86-1,0-56.65,12.39-114.87,17.66-171.99,28-.36-2.88.66-5.49,1.28-8.21,2.3-10.07,10.19-27.42,10.74-36.31.44-7.01-6.86-8.59-11.13-5.07-3.93,3.24-10.85,37.53-13.87,45.13-2.4,6.06-5.49,6.25-11.65,7.35-26.99,4.84-57.36,5.91-84.66,8.87-16.53-6.68-36.35-9.76-54.11-7.64-4.7.56-23.99,6.87-26.19,3.91-.55-.75-.38-1.28-.04-2.07l18.57-43.56c-1.94-10.37-11.07-7-14.13.92l-18.77,42.97c-1.49,1.86-4.38,1.73-6.55,1.77-14.32-6.18-28.91-12.28-42.87-19.21s-15.18-4.76-14.69-22.41c.21-7.64.99-22.45,3.86-29.14,1.8-4.19,3.35-4.3,6.19-6.31l2.51-.66c60.3,24.31,125.16,21.9,188.16,10.07,22.34-2.54,40.74-.03,62.56,4.08l12.12.51,164.13-25.78,1.53,1.79h0Z"/>
  <path class="st15" d="M321,298c28.7-1.4,57.36-1.4,86,0,3.44.29,8.34,1.29,11.68,2.82,9.92,4.57,14.9,18.63,17.45,28.55,2.85,11.05,3.38,22.53,5.87,33.63.2,2.97.89,5.65,2.07,8.03l-1.07.97,1.89.64c11.52.81,23.96,1.19,37.32,1.15l.78,2.21c-1.93,4.74-.95,6.77,3.3,9.2,11.75,6.7,23.59,6.87,32.11,19.89,12.48,19.07,9.34,37.8,9.56,59.43.02,1.69-.64,4.45,1.02,5.49.78,10.26.73,20.75,0,31,.02.66-.03,1.34,0,2,.17,3.42-.56,10.63,3.02,12.48.38.2,5.2,1.52,5.48,1.52h25c1.44,0,5.22,2.88,5.5,5,5.41,2.1-1.43,11.74-6,8-12.35.98-24.59,2.68-36.7,5.12-17.8,10.47-36.06,7.52-55.04,2.8-13.83-.95-27.83.49-42,4.3-9.34.67-21.48-.38-28.49-6.73-20.53-2.14-41.13-2.97-61.78-2.48-.7,2.56-15.84,1.69-16.55,1.19-.76-.54-1.22-1.29-1.45-2.19-7.28-1.08-15.75-4.12-23-6-.81-5.3,12.21-4.52,15.5-3l.93-2h78.87l1.2,2,.31-2.06c9.33-6.93,16.94-8.13,28.23-8.14,1.01-2.24,1.32-4.75.94-7.54l2.03-1.27c1.75-25.35,3.03-58.02-6-82l-2.5-.85c-3.57-7.67-7.85-15.61-14.62-20.89l.12-2.25c5.76.07,33.99.12,35.89-5.65,1.7-5.16-6.77-6.08-10.36-6.39-30.35-2.58-64.25,2.05-94.98-.02-8.14-2.6-8.06-8.95.39-11.49,3.64-1.09,3.54-.67,7.05-2.45.62-.31,2.7.35,3.55-.92.43-15.88-4.35-31.84-12.73-45.41-2.17-3.51-20.26-25.34-17.82-27.67,2.66-.06,5.34.06,8,0l.03-.02Z"/>
  <path class="st15" d="M643,585c.82,1.12,2.13,1.62,2.84,2.65,11.07,16.11,13.75,66.02,14.16,86.35,3.02,4.34,2.94,10.57,0,15,.46,41.49-2.73,87.2,0,128,1.38,20.63,13.88,10.65,25.59,9.09,3.25-.43,10.55-.49,13.69.14,8.71,1.77,8.02,12.76,18.47,14.53,19.82.19,41-2.18,60.75-.75,4.78.35,17.86,1.17,13.58,8.53-2.31,3.98-8.47,4.92-12.7,5.33-28.57,2.8-61.18-2.42-89.89,1.11-5.73.7-11.44,6.27-16.45,7.55-17.17,4.41-32.16-4.09-47.55-5.51-29.24-2.7-62.82,2.68-92.03.03-9.67-.88-21.64-8.49-11.49-17.57s28.05-.68,38.73-6.27c6.77-3.55,5.1-8.91,5.3-15.2-.89-.19-.85-.52,0-1,.12-4.99.75-11.59-1-16-.75-17.64-.8-35.36,0-53,0-16.96.37-34.05,0-51-3.23-6.55-3.65-16.19-1-23-1.15-17.71-2.79-35.07-8.54-51.96-2.37-6.96-10.87-21.17-11.41-26.66-.69-7,3.04-6.62,5.95-10.38,29.94-.87,62.7-.88,93,0h0Z"/>
  <path class="st12" d="M564,674c.51,7.82.83,15.15,1,23l-165.51,25.99c-17.88.74-37.4-6.14-55.01-6.06-22.98.11-51.04,7.78-74.99,9.07-13.99.75-29.02.92-42.95,1.05-27.95.27-61.68-8.88-88.35-17.75-1.55-.52-2.91-1.32-4.19-2.29,3.95-2.81,4.85-3.28,9.79-4.71,30.37-8.79,68.63-13.12,100.4-19.6,10.97-2.24,26.07-7.58,36.3-8.7,16.07-1.75,35.23,2.9,50.97,4.05,10.27.75,21.63-.36,32.08-.08,34.41.92,70.26,4.48,103.92-3.99l96.54.04v-.02Z"/>
  <path class="st21" d="M338,533c25.55.4,51.31,3.86,76.46,8.52,28.74,1.94,57.67,5.87,82.74,18.25l.8,2.23c-7.16,7.79-7.46,34.03-19.56,35.94-3.67.58-11.01.31-14.93.04-21.21-1.42-45.62-6.96-67.14-9.86-20.73-2.79-48.03-3.47-67.6-8.4-3.65-.92-7.63-2.26-8.56-6.44-2.48-11.11,1.4-29.37-.21-41.29,5.3.79,12.69.22,18,1h0Z"/>
  <path class="st41" d="M364.79,612.29c20.49-2.09,77.22,3.58,92.24,18.17,12.76,12.4,7.31,30.48-9.77,34.3-36.43,0-77.65,4.12-113.8,1.27-17.4-1.37-24.99-12.43-14.9-27.97s28.75-23.99,46.23-25.77h0Z"/>
  <path class="st21" d="M705,538c1.23.32,3.21.52,4,1.5-12.31,16.18-28.32,30.39-37.18,48.82-1.43,2.98-1.45,8.11-5.37,8.7-1.43.22-2.94.22-3.97-1.01-1.41-1.69-4.14-11.69-6.65-15.35-3.04-4.44-6.92-7.06-12.33-7.67-11.17-1.25-22.92.91-33.96,1.04-18.07.22-47.37-2.6-63.8.2-9.74,1.66-15.65,12.44-14.74,21.77l-33,1.99c-2.03-1.91,13.83-30.97,7-35.99l.89-2.24c9.68-3.42,18.87-8.37,27.71-13.56l2.41.8c4.87-2.35,10.36-3.31,16.47-2.88l138.71-7.39,13.82,1.27h-.01Z"/>
  <path class="st18" d="M305,815c8.7,7.23,22.69,21.95,13.85,33.35-7.19,9.28-37.8,11.12-49.36,11.64-26.55,1.17-60.95,2.87-87.04,1.06-14.94-1.04-21.59-4.63-15.31-20.4,3.9-9.79,11.3-19.54,18.85-26.65,1.28-.82,2.53-1.14,3.75-.96,14.45,7.32,29.2,12.37,44.25,15.17,23.5-2.02,46.49-6.63,68.96-13.83l2.04.63h.01Z"/>
  <path class="st27" d="M269,526l-9.26-2.24c-40.47-21.84-76.7-50.9-115.65-75.35-6.82-7.45-8.1-17.62-8.09-27.41,16.78.73,23.85,11.87,37.77,17.73,6.61,2.79,14.48,3.94,21.48,6.52,32.46,11.98,45.35,43.2,64.33,69.67,2.64,3.68,6.85,7.27,9.42,11.08h0Z"/>
  <path class="st31" d="M285.79,451.29c25.02-2.71,55.2,7.43,75.54,21.87,6.55,4.65,22.63,16.76,5.21,17.87l-102.85-.23c-6.46-4.53-5.13-13.41-3.4-20.01,3.45-13.17,12.54-18.09,25.5-19.5h0Z"/>
  <path class="st3" d="M402,398c6.64,3.51,14.36,16.98,17,24l-133,1v-19.5c0-.79-3.36-5.2-4-6.5,24.14.81,48.46-1.68,72.46-2.04,11.21-.17,38.59-1.69,47.54,3.04Z"/>
  <path class="st40" d="M305,815c-.99,1.66-2.76,1.67-4.37,2.13-16.86,4.81-53.86,14.44-70.17,12.91-13.81-1.3-30.82-12.4-44.46-16.04,32.1-30.21,86-26.4,119,1Z"/>
  <path class="st5" d="M812,623c-1.02,1.67-1.66,3.45-2.15,5.35-7.61,29.39-2.08,61.48-4.83,91.17-.16,1.77-.33,3.44-2.02,4.48-9.07-9.71-20.21-17.76-26.74-29.76l-11.26-53.24c13.27-4.59,34.98-17.58,47-18h0Z"/>
  <path class="st13" d="M667,522l.92,5.57c11.33,5.18,24.86,7.25,37.08,10.43l-169,9c-.44-1.95.29-2.88,1.72-3.9,2.84-11.31,14.25-12.98,24.28-13.1,4.19-1.29,6.65-3.08,6-8h99Z"/>
  <path class="st2" d="M425,504c-.19,2.77.74,8.9-1.99,10.51-2.11,1.25-12.5.19-17.24,1.76-3.34,1.11-9.55,6.73-12.27,6.73h-81c-.33,0-1.68.93-2.96,1.04-4.11.36-8.91-.83-12.54,1.96-3.87-1-13.09-1.75-15.94-3.56-3.18-2.02-9.16-13.97-13.05-16.95-.04-.9,1.31-.44,1.99-.49,46.96-1.24,93.96-1.24,141,0,4.74-.1,9.34-.07,14-1h0Z"/>
  <path class="st14" d="M562,530c-3.46,1.07-5.39.5-8.27,1.24s-11.13,5.59-12.61,8.38c-2.55,4.79.33,3.49-5.12,7.38-4.86,3.47-25.74,14.31-31,15-1.55.2-5.56.27-7,0-6.6-1.24-16.45-7.78-24.8-9.7-40.98-9.42-92.62-13.08-135.2-19.3,1.04-1.66,3.79-1,5.49-1.02,13.9-.17,44.66-2.03,56.55,1.49,3.49,1.03,4.94,3.98,7.02,4.98,15.3,7.4,41.5-4.78,57.33-3.33,17.51,1.61,29.69,9.07,49.16,2.92,3.88-1.23,7.9-3.88,11.93-5.07,11.62-3.45,24.47-2.92,36.53-2.97h0Z"/>
  <path class="st0" d="M842,523c-39.27,2.93-78.66,5.53-118,8-11.41-2.26-22.67-5.42-34-8h152Z"/>
  <path class="st15" d="M512.71,784.22c9.03-2.04,14.76,2.25,18.67,9.9,17.84,34.8-35.27,6.79-22.41-7.64.95-1.07,2.33-1.94,3.73-2.26h.01Z"/>
  <path class="st15" d="M703.77,777.24c6.07,6.1-1.1,23.79-9.38,27.66-10.6,4.95-12.07,0-11.39-10.37.39-5.89,5.69-16.66,11.74-18.28,2.12-.57,7.49-.55,9.02.99h.01Z"/>
  <path class="st23" d="M660,674l38.01.5-38.01,14.5c-.05-4.99.1-10.02,0-15Z"/>
  <path class="st19" d="M566,817c0,.33.01.67,0,1l-238,1c-.28-.49-1.6-2.02-.5-2h238.5Z"/>
  <path class="st32" d="M411,505c-45.57.96-96.36-3.42-141,0h141Z"/>
  <path class="st1" d="M550,585s-1.75-.95-.5-1h94c1.25.05-.53.96-.5,1h-93Z"/>
  <path class="st17" d="M565,801c-.03,3.49.1,7.02,0,10.52-.03.86.41,3.6-1.01,1.98v-65.5h1c0,17.65.15,35.35,0,53h.01Z"/>
  <path class="st21" d="M673,318c9.06,5.67,18.23,11.32,26.89,17.61,1.4,8.14,10.51,40.6,7.62,46.41-14.46,7.39-30.07,13.11-44.87,20.12-13.43,6.36-37.27,21.83-49.83,25.17-1.94.52-3.79.93-5.81.68.71-9.14,3.29-28.13-1.54-35.96-2.75-4.45-33.15-29.58-38.21-31.79-.89-.39-6.39-2.25-6.75-2.25h-40.5c-.14-3.68.25-7.69,1.28-11.22,2.65-9.06,23.98-27.38,31.72-34.78,5.63.66,11.3,2.61,16.99,5.85,7.63,2.93,15.25,5.77,22.85,8.45,16.6,5.85,21.08,5.5,38.39,1.97,14.16-3.51,28.09-6.93,41.77-10.27h0Z"/>
  <path class="st3" d="M615,259c3.16,1.2,5.05,1.09,7.23,4.27,1.37,1.99,5.67,16.83,4.77,17.73-6.85-.89-13.95.81-20.46,1.05-11.67.42-28.88-1.81-39.56,1.44-11.99,3.65-19.53,16.85-29.7,23.3l-90.83.26c-3.9,2.14-15.42-13.04-15.31-14.37,6.01-8.24,12.44-16.25,18.89-24.15,3.44-4.22,9.66-7.19,8.97-13.53l1.58-1.76c17.63-1.39,35.52-.77,53.66,1.86l43.69-1.52c19.02,2.34,38.05,4.15,57.07,5.42h0Z"/>
  <path class="st9" d="M188,242c121.32-.34,242.65-.34,364,0,13.84.92,49.21,11.75,63,17-16.58,3.58-33.07-1.53-49.51-2.99-19.31-1.72-36.43,1.82-54.98.98-10.24-.46-21.75-2.83-32.06-3.03-5.47-.11-13.64,2.32-19.45,1.04-4.95-1.09-7.47-7.55-15-1l-3.69,1.88c-21.51,2.59-42.88,6.19-64.12,10.78-11.01,2.21-22.15,2.72-33.38,2.7-6.13-.01-46.08-.73-48.14-1.99-.61-.37-1.15-.86-1.67-1.38-5-5.54-14.81-15.69-19-4-.86,3.9-9.84,2.42-10.5-1-.09.79-.37,1.98-.93,2-6.46.25-49.8,1.57-51.87,0l-1.2-2-1.27,1.93c-5.12,1.1-27.79-15.6-27.91-17.75-.05-.79.27-1.52.68-2.18,2.57-.84,4.4-.84,7-1h0Z"/>
  <path class="st41" d="M124,358v-27.5c0-2.06,1.96-9.81,3.15-11.85,1.32-2.27,5.52-6.21,8.01-6.99,5.93-1.85,34.52-1.01,41.26.41,9.37,1.98,20.61,9.58,30.16,10.84,19.83,2.62,52.61-4.94,68.4,10.6,5.5,5.41,11.08,18.14,3.99,23.97-30.69,1.05-61.71.41-92.54.49-3.38,0-6.62,1.03-9.87,1.03-17.63.05-34.96-1.27-52.57-1.01h.01Z"/>
  <path class="st21" d="M274,262c6.51,12.41,25.35,24.67,21.79,40.29-1.21,5.31-7.48,7.64-12.34,7.74s-11.86-1.05-16.91-1.08c-29.8-.19-60.92,4.23-87.24-12.76-11.81-7.62-11.25-19.91-10.35-32.74.64-9.18,2.23-17.27,12.04-20.46,5.61,6.03,20.33,18,28.5,18h54c2.21,0,7.23,2.07,10.5,1h.01Z"/>
  <path class="st38" d="M758.99,399l-22.74-12.25c-12.34-54.22-32.3-105.57-64.44-151.06l-15.81-21.68c61.31,41.99,93.86,112.6,102.98,184.99h.01Z"/>
  <path class="st33" d="M777.99,487.01c3.08-83.98,20.42-173.71,73-241-1.9,5.86-6.18,11.17-8.87,16.62-29.44,59.67-40.74,134.67-44.16,200.84-.21,4.02.98,22.79-.89,24.1-2.49,1.73-15.02-1.93-19.07-.55h-.01Z"/>
  <path class="st38" d="M773.99,401.99l-12.28-72.2c-6.17-36.7-18.22-71.72-33.53-105.47l-26.17-50.32c40.7,41.57,66.71,99.79,80.5,155.99,1.06,4.32,4.59,15.97,4.43,19.44-.3,6.56-7.31,25.48-9.26,33.75-1.46,6.21-2.48,12.56-3.69,18.81h0Z"/>
  <path class="st26" d="M673,318c-.66,1.89-2.41,2.02-3.98,2.52-12.38,3.94-48,13.51-59.51,12.47-7.09-.64-19.59-5.71-26.76-8.24-9.92-3.49-20.7-7.56-29.75-12.75,4.94-4.73,11.65-14.35,18.73-15.77,13.55-2.74,33.53-1.08,47.82-1.18,2.67-.02,5.01-1.19,7.91-1.08,9.1.34,36.44,18.33,45.55,24.04h0Z"/>
  <path class="st3" d="M444,254c-5.92,5.15-13.45,16.71-19.49,23.01-2.45,2.56-5.53,6.58-8.96,7.04l-108.85.97c-3.72-5.96-8.16-11.2-12.74-16.52-.73-.84-.74-2.26-.96-2.5,6.15.21,12.38-.28,18.54-.04,15.38.59,31.44,2.18,46.95,1.03,17.81-1.33,38.96-7.08,57.18-9.82,9.38-1.41,18.88-3,28.33-3.17h0Z"/>
  <path class="st18" d="M528,398l2.94-2.47c15.8-1.14,31.24-3.88,46.32-8.21l3.74.68c4.47,3.84,12.3,8.36,13.02,14.48.6,5.07.76,25.33-.24,29.81-.84,3.79-5.02,5.9-8.53,6.47-4.07.67-18.91,1.77-22.53,1.01-2.08-.44-18.93-10.6-20.68-12.32-3.14-3.07-9.58-22.71-14.04-29.46h0Z"/>
  <path class="st33" d="M824,488h-15c-1.18-23.82,3.08-47.35,9.28-70.22,12.52-46.14,36.6-93.92,73.71-124.78l-13.81,17.68c-34.9,51.63-51.92,115.22-54.19,177.31h0Z"/>
  <path class="st33" d="M853,488h-19c5.97-52.37,34-105.95,73.99-140l-15.16,22.33c-20.04,36.29-36.89,75.79-39.83,117.67Z"/>
  <path class="st28" d="M559,371c7.66,5.23,14.97,10.96,22,17-16.67,7-35.31,7.18-53,10-6.53-9.88-26.08-22.37-37.58-23.95-4.92-.68-5.28,1.53-7.42,1.95-.27.05-3.73-1.02-5.44-1-5.4.05-31.35.84-33.94-.92-1.02-.7-.43-1.56-.62-2.07l.17-1.33c38.61-.02,77.22.09,115.83.33h0Z"/>
  <path class="st34" d="M790.99,318l-10.78-32.74c-2.13-11.32,24.81-64.34,31.98-76.56,4.32-7.36,9.37-15.11,14.8-21.69-18.93,41.27-31.87,85.55-36,130.99h0Z"/>
  <path class="st29" d="M907,331c-15.11,12.49-28.43,27.73-39.81,43.69-6.35,8.9-11.63,18.57-18.18,27.31,8.94-31.17,22.33-60.57,40.99-87,7,3.58,11.33,10.79,17,16Z"/>
  <path class="st29" d="M864,304c-11.5,12.38-20.72,26.77-29.17,41.33l-13.82,26.67c4.61-24.17,11.06-47.77,18.99-71,7.66-2.74,16.34,1.84,24,3h0Z"/>
  <path class="st8" d="M230,242c54.65-.91,109.35-.8,164,0,50.81.07,108.04-3.31,158,0H188c13.45-.84,28.35.08,42,0Z"/>
  <path class="st10" d="M230,241c-10.11-.02-20.41.42-30.51,0-1.23-.05-3.71.76-3.49-1h229c.22,1.76-2.26.95-3.49,1-9.11.38-18.39-.02-27.51,0-54.66.82-109.34.72-164,0Z"/>
  <path class="st25" d="M394,241v1c-54.64-.07-109.36-.32-164,0v-1c54.65.12,109.35.14,164,0Z"/>
  <path class="st20" d="M442,363c.06-1.12-.7-3.26.99-2.99-.03,1.85-.38,9.56,1.68,10.04l114.83-.05-.5,1-116,1c-1.26-3.37-1.2-5.35-1-9h0Z"/>
  <path class="st24" d="M861,502h-114c34.51-.12,80.94-3.47,114,0Z"/>
  <path class="st11" d="M321,298h86c-25.46-2.16-59.87-.6-86,0Z"/>
  <path class="st4" d="M556,228h-81,1c25.15.24,55.68-2.28,80,0Z"/>
  <path class="st36" d="M529,501c-.35-10.26-.07-20.73,0-31,.02-3.15-.13-6.36,0-9.51.05-1.22-.75-3.71.99-3.48-.12,12.82.19,25.68.03,38.51-.02,1.69.64,4.45-1.02,5.49h0Z"/>
  <path class="st15" d="M438.8,847.3c7.69-.87,26.12-1.28,33.46-.06,10.88,1.81,9,13.46,2.21,14.73-5.38,1.01-33.05.74-38.74-.21-14.5-2.42-12.5-12.71,3.06-14.47h.01Z"/>
  <path class="st16" d="M524.71,870.21c5.42-1.22,42.66-1.12,48.73-.15,8.37,1.33,9.88,9.75-1.96,10.93-10.47,1.04-34.55,1.14-44.87-.1s-9.46-8.98-1.9-10.67h0Z"/>
  <path class="st37" d="M488,509.5c-1.85,10.47-20.95,7.84-24.5-.5-1.58-3.7-.97-20.84-4.99-19.99-4.88,1.03,2.22,30.67-11.85,25.84-5.39-1.85-1.67-24.98-1.62-30.29.14-14.43.44-36.92-2.49-50.61-1.07-5.03-7.48-14.42.41-16.52,5.88-1.56,8.58,6.53,10.5,10.61,5.75,12.2,10.13,43.58,29.59,37.52,11.29-3.52-1.16-35.48,9.48-37.54,8.44-1.64,13.02,9.41,14.98,15.98,2.67,8.97,4.06,21.09,4.53,30.47.3,6.05.85,35.65-.71,39.31s-7.21,1.95-9.84.23c-9.75-6.37-7.19-24.17-8.63-34.36-.67-2.09-3.01-1.69-4.86-1.64-1.17,9.42,1.58,22.58,0,31.5h0Z"/>
  <path class="st23" d="M395.23,370.77c-2.97-3.06-6.89-44.44-11.03-51.56-.81-10.26,9.52-11.23,14-2.92,2.25,4.18,4.37,18.34,11.24,17.75,8.4-.72-2.81-19.01,3.17-20.98s9.97,10.55,10.92,14.89c2.85,12.98,2.88,28.03,3.27,41.34-3.31,5.5-9.78,2.77-14.32,2.7-3.57-.05-15.29.8-17.26-1.24v.02Z"/>
  <path class="st23" d="M358.5,372c-.49-.15-1.17-1.08-1.35-1.65-.88-10.51-2.3-21.08-4.64-31.36-1.59-6.96-7.98-21.6-8.19-26.69-.35-8.42,9.18-2.62,12.65,1.23,8.56,9.5,14.01,22.99,16.57,35.43.73,3.53,4.59,23.03-.03,23.03-3.28,0-12.81.68-15,0h0Z"/>
  <path class="st37" d="M648,711c-1.18.94-2.9,1.43-5.13,1.45l-10.17,19.23c-.85,1.75-1.85,2.3-3.7,1.32l-1.86-5.32c-.22-19.52-1.04-40.11-1.8-58.79-.29,21.25-.77,42.72-1.42,64.4l-1.92,5.71-1.07,2.6c-5.57,4.56-8.48,11.43-8.72,20.6-3.18,13.22-21.15,13.98-20.24-1.32l1.13-19.5c.33-10.02-5.53-16.22-13.43-6.84l-2.66-.54c.16-33.15,2.52-66.33-1.12-99.38-.54-4.88-4.75-22.19-2.95-24.95,4.34-6.64,12.57,5.77,14.59,9.31,2.35,4.12,7.86,20.67,12.03,21.07,2.85.27,5.25-2.97,5.42-5.6.21-3.46-6.58-28.88,3.78-23.72,7.82,3.89,8.97,34.93,17.27,38.75,3.68,1.69,8.98-2.18,8.98-4.99v-17c0-3.78,3.96-.02,5.19,2.81,8.45,19.42,7.2,59.1,7.81,80.69h-.01Z"/>
  <path class="st7" d="M648,711v1c.43,32.39.6,65.58,0,98-4.48,12.95-29.97,8.87-35.86-.64-1.88-3.04-1.58-8.45-6.64-8.45-7.77,0-5.15,18.44-19.76,15.87-6.04-1.06-8.25-5.6-8.78-11.23-2-21.28-.07-49.5.04-71.54,3.12-1.84,4.67-5.46,8.59-5.98,15.3-2.02,7.27,28.76,8.47,36.42,1.23,7.84,10.85,7.08,14.41,1.52,4.96-7.75.65-22.59,13.53-26.97l2,.83c-.87,11.89,4.37.77,2.98-5.32l2.02-1.51c4.14-3.1,10.17-21.78,13.68-22.9,1.66-.53,3.68.55,5.32.9h0Z"/>
  <path class="st39" d="M648,810v-98c.87,32.65,1.21,65.25,0,98Z"/>
  <path class="st6" d="M629,733c-.14,3.45.62,10.78-2.41,13.09-6,4.55-4.49-3.13-4.59-7.09-.55-22.83,2.08-45.68.95-68.55-.26-4.07,4.31-5.08,5.04-.95-.84,21.19,1.85,42.33,1,63.5h.01Z"/>
</svg>